<svg id="visual" viewBox="0 0 900 100" width="900" height="100" xmlns="http://www.w3.org/2000/svg" xmlns:xlink="http://www.w3.org/1999/xlink" version="1.1"><rect x="0" y="0" width="900" height="100" fill="#f0f8ff"></rect><path d="M0 84L21.5 82C43 80 86 76 128.8 76.3C171.7 76.7 214.3 81.3 257.2 82.5C300 83.7 343 81.3 385.8 77.7C428.7 74 471.3 69 514.2 70.2C557 71.3 600 78.7 642.8 79.5C685.7 80.3 728.3 74.7 771.2 70.7C814 66.7 857 64.3 878.5 63.2L900 62L900 101L878.5 101C857 101 814 101 771.2 101C728.3 101 685.7 101 642.8 101C600 101 557 101 514.2 101C471.3 101 428.7 101 385.8 101C343 101 300 101 257.2 101C214.3 101 171.7 101 128.8 101C86 101 43 101 21.5 101L0 101Z" fill="#1b3644" stroke-linecap="round" stroke-linejoin="miter"></path></svg>